<?xml version="1.0" encoding="utf-8"?>
<!-- Generator: Adobe Illustrator 19.0.0, SVG Export Plug-In . SVG Version: 6.00 Build 0)  -->
<svg version="1.1" id="Layer_1" xmlns="http://www.w3.org/2000/svg" xmlns:xlink="http://www.w3.org/1999/xlink" x="0px" y="0px"
	 viewBox="0 0 214.2 52" style="enable-background:new 0 0 214.2 52;" xml:space="preserve">
<style type="text/css">
	.st0{fill:url(#SVGID_1_);}
	.st1{fill:#0E2D6D;}
	.st2{opacity:0.8;fill:url(#SVGID_2_);}
	.st3{opacity:0.8;fill:url(#SVGID_3_);}
	.st4{fill:#FFFFFF;}
</style>
<linearGradient id="SVGID_1_" gradientUnits="userSpaceOnUse" x1="154.4985" y1="52" x2="154.4985" y2="4.800003e-03">
	<stop  offset="0" style="stop-color:#D82130"/>
	<stop  offset="0.2557" style="stop-color:#C51E2C"/>
	<stop  offset="0.7719" style="stop-color:#941723"/>
	<stop  offset="1" style="stop-color:#7C131E"/>
</linearGradient>
<path class="st0" d="M94.8,52l114.7,0c2.6,0,4.7-2.1,4.7-4.7V4.7c0-2.6-2.1-4.7-4.7-4.7L94.8,0V52z"/>
<path class="st1" d="M94.8,0H4.7C2.1,0,0,2.1,0,4.7v42.6C0,49.9,2.1,52,4.7,52l90.1,0V0z"/>
<linearGradient id="SVGID_2_" gradientUnits="userSpaceOnUse" x1="49.2588" y1="1.0918" x2="49.2588" y2="25.6116">
	<stop  offset="0" style="stop-color:#FFFFFF"/>
	<stop  offset="3.941023e-02" style="stop-color:#E7ECF5"/>
	<stop  offset="0.1217" style="stop-color:#BACAE3"/>
	<stop  offset="0.2101" style="stop-color:#93ACD3"/>
	<stop  offset="0.3032" style="stop-color:#7293C6"/>
	<stop  offset="0.4025" style="stop-color:#577EBB"/>
	<stop  offset="0.5103" style="stop-color:#426EB3"/>
	<stop  offset="0.6308" style="stop-color:#3363AD"/>
	<stop  offset="0.7742" style="stop-color:#2B5CA9"/>
	<stop  offset="1" style="stop-color:#285AA8"/>
</linearGradient>
<path class="st2" d="M94.8,1.1H3.7c0,0,2,10.7,14.5,19.7c0,0,6.4,4.8,10.6,4.8h65.9L94.8,1.1z"/>
<linearGradient id="SVGID_3_" gradientUnits="userSpaceOnUse" x1="152.6274" y1="1.0918" x2="152.6274" y2="25.6116">
	<stop  offset="0" style="stop-color:#FFFFFF"/>
	<stop  offset="4.836607e-02" style="stop-color:#FAE1E3"/>
	<stop  offset="0.1298" style="stop-color:#F2B4BA"/>
	<stop  offset="0.2174" style="stop-color:#EB8D95"/>
	<stop  offset="0.3096" style="stop-color:#E56C76"/>
	<stop  offset="0.4081" style="stop-color:#E0515D"/>
	<stop  offset="0.5148" style="stop-color:#DD3C4A"/>
	<stop  offset="0.6342" style="stop-color:#DA2D3C"/>
	<stop  offset="0.7763" style="stop-color:#D82534"/>
	<stop  offset="1" style="stop-color:#D82232"/>
</linearGradient>
<path class="st3" d="M94.8,1.1h115.7c0,0-2,10.7-14.5,19.7c0,0-6.4,4.8-10.6,4.8H94.8L94.8,1.1z"/>
<path class="st4" d="M62.6,48.3c0.6,0.3,1.9,0.7,3.4,0.7c2.7,0.1,4.2-1,5.3-3.4l14.5-32.4c-0.6-0.3-1.9-0.7-3-0.7
	c-1.9,0-4.4,0.3-6,4.2l-4.7,11.1l-9.2-15c-0.6-0.2-2.1-0.4-3.1-0.4c-3.3,0-5.1,1.2-7,3.2l-9,9.8l7.2,11.4c1.3,2.1,3.1,3.1,5.9,3.1
	c1.9,0,3.4-0.4,4.1-0.8L52.5,26l6.2-6.5l10.1,15.9L62.6,48.3z M43.5,36c0,2.4-0.9,3.8-5.6,3.8c-0.6,0-1.2,0-1.7-0.1V8
	c0-2.4,0.8-4.9,5.5-4.9c0.6,0,1.2,0.1,1.8,0.2V36z M33.9,31.3c0,4.5-2.9,7.7-8.8,8.3c-4.3,0.5-10.5-0.1-13.4-0.4
	c-0.1-0.5-0.2-1.1-0.2-1.6c0-3.9,2.1-4.8,4.1-4.8c2.1,0,5.3,0.4,7.7,0.4c2.6,0,3.4-0.9,3.4-1.8c0-1.1-1.1-1.6-3.1-2l-5.6-1.1
	c-4.7-0.9-7.2-4.1-7.2-7.6c0-4.2,2.9-7.7,8.7-8.3c4.4-0.5,9.7,0.1,12.7,0.4c0.1,0.5,0.2,1,0.2,1.5c0,3.9-2.1,4.7-4,4.7
	c-1.5,0-3.9-0.3-6.6-0.3c-2.7,0-3.9,0.8-3.9,1.7c0,1,1.1,1.4,2.8,1.7l5.4,1C31.6,24.3,33.9,27.4,33.9,31.3z"/>
<g>
	<path class="st4" d="M120.8,43.8h-9.5c-1.1,0-2-0.1-2.7-0.3c-0.6-0.2-1.2-0.5-1.5-0.8c-0.3-0.3-0.6-0.8-0.7-1.3
		c-0.1-0.5-0.2-1.1-0.2-1.7V13c0-0.6,0.1-1.1,0.2-1.7c0.1-0.5,0.4-0.9,0.7-1.3c0.4-0.3,0.9-0.6,1.5-0.8c0.7-0.2,1.6-0.3,2.7-0.3h9.2
		c2.7,0,5.1,0.2,6.9,0.7c1.8,0.5,3.4,1.1,4.5,1.9c1.1,0.8,2,1.8,2.5,2.8c0.5,1.1,0.8,2.3,0.8,3.5c0,1.7-0.5,3.2-1.6,4.5
		c-1.1,1.3-2.6,2.3-4.4,2.9l-0.9,0.3l1,0.3c2.7,0.7,4.6,1.8,5.7,3.2c1.1,1.4,1.7,2.9,1.7,4.6c0,3.3-1.3,5.7-3.9,7.4
		C130.1,42.9,126.1,43.8,120.8,43.8 M114.8,37.6h0.3h4.8c2.5,0,4.2-0.3,5.4-1c1.2-0.7,1.8-1.8,1.8-3.5c0-0.5-0.1-1-0.3-1.4
		c-0.2-0.5-0.5-1-1-1.4c-0.5-0.4-1.2-0.7-2.1-0.9c-0.9-0.2-2-0.4-3.5-0.4h-5.1h-0.3v0.3v8V37.6z M114.8,23.5h0.3h4.8
		c1.2,0,2.2-0.1,3-0.3c0.8-0.2,1.4-0.5,1.9-0.9c0.5-0.4,0.8-0.8,1-1.3c0.2-0.5,0.3-1,0.3-1.5c0-1.4-0.5-2.4-1.5-3
		c-1-0.6-2.6-0.9-4.9-0.9h-4.6h-0.3v0.3v7.4V23.5z"/>
	<path class="st4" d="M149.6,36.5V30h12.3c2.9,0,4.5-1,4.5-4.8c0-0.9-0.1-1.8-0.3-2.3h-16.5v-6.8h12.7c2.9,0,4.5-1,4.5-4.8
		c0-0.9-0.1-1.8-0.3-2.3h-18.9c-5.4,0-6.4,2.8-6.4,5.6v28.9v0.1H163c2.9,0,4.5-1,4.5-4.8c0-0.9-0.1-1.8-0.3-2.3H149.6z"/>
	<path class="st4" d="M190.8,16.1h6.8c2.2,0,4.5-1,4.5-5.5c0-0.5,0-1.1-0.2-1.7h-26.5c-2.2,0-4.5,1-4.5,5.5c0,0.5,0.1,1.2,0.2,1.7
		h11.2v27.6c0.6,0.1,1.4,0.2,2.1,0.2c5.2,0,6.4-1.5,6.4-4.2V16.1z"/>
</g>
</svg>
